<?xml version="1.0" encoding="UTF-8" standalone="no"?>
<svg
   xmlns:dc="http://purl.org/dc/elements/1.1/"
   xmlns:cc="http://creativecommons.org/ns#"
   xmlns:rdf="http://www.w3.org/1999/02/22-rdf-syntax-ns#"
   xmlns:svg="http://www.w3.org/2000/svg"
   xmlns="http://www.w3.org/2000/svg"
   xmlns:sodipodi="http://sodipodi.sourceforge.net/DTD/sodipodi-0.dtd"
   xmlns:inkscape="http://www.inkscape.org/namespaces/inkscape"
   id="Layer_1"
   viewBox="0 0 245 240"
   version="1.1"
   sodipodi:docname="logo.svg"
   inkscape:version="0.92.4 (5da689c313, 2019-01-14)">
  <metadata
     id="metadata953">
    <rdf:RDF>
      <cc:Work
         rdf:about="">
        <dc:format>image/svg+xml</dc:format>
        <dc:type
           rdf:resource="http://purl.org/dc/dcmitype/StillImage" />
        <dc:title></dc:title>
      </cc:Work>
    </rdf:RDF>
  </metadata>
  <defs
     id="defs951" />
  <sodipodi:namedview
     pagecolor="#ffffff"
     bordercolor="#666666"
     borderopacity="1"
     objecttolerance="10"
     gridtolerance="10"
     guidetolerance="10"
     inkscape:pageopacity="0"
     inkscape:pageshadow="2"
     inkscape:window-width="1920"
     inkscape:window-height="1015"
     id="namedview949"
     showgrid="false"
     inkscape:zoom="2.7812867"
     inkscape:cx="141.08511"
     inkscape:cy="139.82359"
     inkscape:window-x="1920"
     inkscape:window-y="868"
     inkscape:window-maximized="1"
     inkscape:current-layer="Layer_1" />
  <style
     id="style942">.st0{fill:#FFFFFF;}</style>
  <rect
     style="fill:#000000;fill-opacity:1;stroke:#000000;stroke-opacity:1"
     id="rect2105"
     width="313.1644"
     height="265.34482"
     x="-17.977291"
     y="-16.356171"
     ry="8" />
  <g
     id="g879"
     transform="matrix(2.2353157,0,0,1.5737413,-165.08365,-62.344608)">
    <path
       style="fill:#fae6d5"
       d="m 63.2148,205.25 c 0.644558,-1.5125 1.705645,-3.425 2.357972,-4.25 0.652328,-0.825 1.978105,-3.075 2.946171,-5 0.968067,-1.925 2.090703,-3.725 2.494746,-4 0.404043,-0.275 1.578753,-1.88432 2.610467,-3.57626 C 76.503988,183.701 80.733189,179 82.102107,179 c 1.549045,0 0.542845,-1.08018 -1.260476,-1.35316 C 80.103734,177.53515 79.05,177.17802 78.5,176.85322 c -0.55,-0.3248 -2.8,-0.90183 -5,-1.28229 -6.541833,-1.13133 -11.168334,-2.6787 -22,-7.35807 -3.85,-1.66323 -8.0125,-3.32186 -9.25,-3.68584 -3.227312,-0.94925 -2.798909,-2.79262 0.5,-2.15144 30.975252,6.02031 45.806035,1.96078 56.870721,-15.56681 C 102.90067,141.613 101.40163,129.45317 96.876712,124.55 96.39452,124.0275 96,122.79 96,121.8 96,120.81 95.656231,120 95.236068,120 94.815905,120 93.359675,118.2 92,116 c -1.359675,-2.2 -2.815905,-4 -3.236068,-4 -0.420163,0 -0.77112,-0.7875 -0.779905,-1.75 -0.01509,-1.65353 -1.063384,-3.06957 -9.438854,-12.75 C 72.037235,89.978075 66.861662,85.018297 49.509818,69.67527 44.04717,64.845031 45.19757,64.519698 55.063711,68.10463 59.70367,69.790593 64.85,71.527609 66.5,71.964666 c 1.65,0.437058 4.35,1.521032 6,2.408831 1.65,0.8878 4.0125,1.616954 5.25,1.620342 C 78.9875,75.997228 80,76.45 80,77 c 0,0.55 0.595254,1 1.322787,1 1.886698,0 14.03336,5.994223 14.9119,7.358832 0.404078,0.627643 0.741578,0.748568 0.75,0.268723 C 96.993109,85.147711 97.675,85.315311 98.5,86 c 1.80278,1.496172 1.88107,0.930463 0.339485,-2.452947 C 98.201202,82.146174 97.274644,81 96.780468,81 96.286292,81 96.175119,80.525669 96.533417,79.94593 97.560389,78.284255 81.202399,45.148504 74.353965,35.017865 73.059284,33.102692 72,31.002692 72,30.351199 72,29.699706 71.6625,29.016667 71.25,28.833333 70.253666,28.390518 64,18.126072 64,16.933554 64,16.420099 63.523442,16 62.940983,16 c -0.582459,0 -0.751209,-0.498043 -0.375,-1.106763 0.426693,-0.690403 0.919139,-0.741107 1.309017,-0.134781 0.34375,0.53459 1.601665,1.276584 2.795367,1.648876 C 69.549784,17.305365 90.045548,32.286008 100.31682,41 110.24879,49.426131 128,68.500755 128,70.747055 128,71.436175 128.34471,72 128.76602,72 c 0.42132,0 2.22944,2.235391 4.01806,4.967536 l 3.25203,4.967536 7.32144,-4.967536 C 147.38434,74.235391 151.39966,72 152.28048,72 c 0.88082,0 1.8796,-0.45 2.21952,-1 1.22574,-1.983291 10.52157,-1.094414 15.68693,1.5 2.73757,1.375 6.48613,2.5 8.33013,2.5 9.07193,0 10.08838,3.040555 1.48294,4.435988 -7.24788,1.175296 -11.75298,6.756937 -14.98353,18.564012 -2.96644,10.84183 -5.11177,17.30723 -7.46588,22.5 -0.74801,1.65 -2.07613,4.73823 -2.95138,6.86272 -1.91278,4.64294 -8.66932,16.00257 -9.79647,16.47061 -0.44151,0.18334 -0.80274,0.72265 -0.80274,1.19848 0,0.47583 -1.125,2.07904 -2.5,3.56269 -1.375,1.48365 -2.5,2.4268 -2.5,2.09589 0,-0.33092 -3.32254,2.75337 -7.38342,6.85397 -4.06089,4.1006 -7.80538,7.45564 -8.3211,7.45564 -0.51572,0 -3.05397,2.02777 -5.64055,4.50615 -2.58658,2.47838 -6.82959,5.44262 -9.4289,6.58721 -2.59932,1.14459 -5.98085,2.7525 -7.51451,3.57312 -1.533665,0.82063 -3.79761,2.01888 -5.03099,2.66279 -1.233379,0.6439 -2.903563,1.75991 -3.711519,2.48003 -0.807956,0.72011 -2.819011,2.17612 -4.469011,3.23558 -1.65,1.05945 -3.879928,2.49527 -4.955395,3.1907 C 80.68853,192.43578 78.428287,194.398 68,203.86245 c -5.30444,4.81417 -6.378146,5.12551 -4.7852,1.38755 z"
       id="path887"
       inkscape:connector-curvature="0" />
    <path
       style="fill:#f8c69f"
       d="m 76.210748,175.88173 c -8.195798,-1.85661 -33.839196,-11.11018 -35.561625,-12.83261 -0.521117,-0.52111 0.715667,-0.53024 2.980019,-0.022 36.912283,8.28535 51.861121,-0.36364 66.309058,-38.3646 C 111.23424,121.25371 108.94912,111.43255 102.80386,94 100.57419,87.675 97.945089,80.185574 96.961411,77.356832 93.198818,66.536814 82.047674,45.262241 69.387352,24.75 66.417037,19.9375 64.179538,16 64.41513,16 65.314028,16 84.094498,29.051136 86,31 c 0.275,0.281258 2.075,1.695298 4,3.14231 1.925,1.447012 4.485524,3.469452 5.690052,4.494311 1.204529,1.024858 4.089064,3.438379 6.410078,5.363379 3.4917,2.895943 10.42939,9.840218 18.89987,18.917806 2.74695,2.943837 11.14346,14.458935 12.60758,17.290225 1.8139,3.507693 1.81286,3.507801 6.98061,-0.726787 9.98972,-8.185817 22.85581,-10.94671 30.18598,-6.477506 1.80079,1.097944 4.95079,2.012208 7,2.031697 7.29056,0.06934 9.18389,2.399921 3.09202,3.806093 -10.07011,2.324461 -12.60191,5.37712 -16.39948,19.773296 -3.3901,12.851466 -9.44648,27.955826 -15.03383,37.493746 -4.56575,7.79399 -10.22647,15.0179 -9.04953,11.54853 0.34385,-1.0136 0.91031,-3.0386 1.2588,-4.5 0.34849,-1.46141 0.97928,-3.1071 1.40174,-3.6571 6.97138,-9.07594 -0.33466,-57.625855 -8.05042,-53.496503 -4.80514,2.571632 -11.3141,14.860063 -9.39816,17.743043 8.19804,12.33591 10.05837,36.7717 3.3272,43.70346 -0.50738,0.5225 -0.92251,1.58859 -0.92251,2.36909 0,1.50267 -9.52247,16.82582 -13.27839,21.36701 -5.63747,6.81614 -20.922896,8.67989 -38.510862,4.69563 z"
       id="path885"
       inkscape:connector-curvature="0" />
    <path
       style="fill:#e69761"
       d="m 81.197123,176.51275 c -9.987399,-1.91062 -40.064661,-11.97855 -38.991399,-13.05181 0.176138,-0.17614 4.814407,0.36157 10.307264,1.19491 29.990615,4.54995 41.884892,-2.4291 54.601252,-32.03768 4.87775,-11.35728 5.02937,-11.27313 6.93266,3.84784 1.88699,14.99156 0.81277,34.41945 -2.03046,36.72176 -5.01958,4.06461 -19.043906,5.57764 -30.819317,3.32498 z M 141.54891,145.25 c 7.04737,-16.16618 6.56589,-37.87443 -1.19985,-54.096262 -4.11274,-8.591071 -3.80389,-9.281545 7.14853,-15.981738 7.73455,-4.731644 19.48213,-5.411513 23.78216,-1.376348 1.34549,1.262608 2.84547,2.221819 3.3333,2.131579 7.51985,-1.391055 11.51164,1.138402 4.63695,2.938272 -8.8588,2.319331 -11.44655,5.838136 -15.63084,21.254697 -4.64464,17.11265 -10.17811,29.90346 -17.79328,41.1298 -3.82058,5.63233 -5.79253,7.47657 -4.27697,4 z m -33.40477,-35.5 c -1.82234,-6.7375 -4.85027,-16.362267 -6.72874,-21.388371 -3.612329,-9.665281 -4.306982,-13.038503 -2.133597,-10.360706 0.670009,0.825508 3.242887,2.818637 5.717507,4.429176 5.14783,3.350321 14.29177,11.765568 17.15767,15.790355 1.94142,2.726476 1.94142,2.726476 -3.85778,13.221516 -7.09264,12.83582 -6.18472,12.98709 -10.15506,-1.69197 z"
       id="path883"
       inkscape:connector-curvature="0" />
    <path
       style="fill:#e9691c"
       d="m 78.5,175.59406 c -12.703418,-2.89481 -41.160103,-13.08713 -31,-11.10325 8.352375,1.63089 27.213213,1.73443 32.555457,0.17871 12.52778,-3.64823 17.51894,-9.82189 29.620133,-36.63773 3.20782,-7.10841 6.3513,27.58375 3.70039,40.8383 -1.40669,7.03346 -18.801149,10.38705 -34.87598,6.72397 z m 64.04941,-31.46892 c 6.55496,-12.46562 5.231,-40.993 -2.54168,-54.765434 -6.01687,-10.661321 20.76892,-24.49432 30.22616,-15.609706 1.77125,1.664003 3.59996,2.25 7.02154,2.25 2.5446,0 4.90465,0.45 5.24457,1 0.33992,0.55 -0.25357,1 -1.31886,1 -7.9256,0 -14.082,6.804696 -17.02936,18.822623 C 160.09304,113.37228 150.81661,134.4906 143.86792,143 c -1.12281,1.375 -1.71614,1.88131 -1.31851,1.12514 z M 107.57925,106.24395 C 105.42283,98.684776 102.41085,89.4625 100.88596,85.75 99.36107,82.0375 98.346455,79 98.63126,79 c 2.35303,0 21.0845,16.390938 23.74733,20.780049 0.70496,1.161991 -9.0847,20.228621 -10.37859,20.213631 -0.275,-0.003 -2.26434,-6.19056 -4.42075,-13.74973 z"
       id="path881"
       inkscape:connector-curvature="0" />
  </g>
  <path
     class="st0"
     d="M104.4 103.9c-5.7 0-10.2 5-10.2 11.1s4.6 11.1 10.2 11.1c5.7 0 10.2-5 10.2-11.1.1-6.1-4.5-11.1-10.2-11.1zM140.9 103.9c-5.7 0-10.2 5-10.2 11.1s4.6 11.1 10.2 11.1c5.7 0 10.2-5 10.2-11.1s-4.5-11.1-10.2-11.1z"
     id="path944" />
  <path
     class="st0"
     d="M189.5 20h-134C44.2 20 35 29.2 35 40.6v135.2c0 11.4 9.2 20.6 20.5 20.6h113.4l-5.3-18.5 12.8 11.9 12.1 11.2 21.5 19V40.6c0-11.4-9.2-20.6-20.5-20.6zm-38.6 130.6s-3.6-4.3-6.6-8.1c13.1-3.7 18.1-11.9 18.1-11.9-4.1 2.7-8 4.6-11.5 5.9-5 2.1-9.8 3.5-14.5 4.3-9.6 1.8-18.4 1.3-25.9-.1-5.7-1.1-10.6-2.7-14.7-4.3-2.3-.9-4.8-2-7.3-3.4-.3-.2-.6-.3-.9-.5-.2-.1-.3-.2-.4-.3-1.8-1-2.8-1.7-2.8-1.7s4.8 8 17.5 11.8c-3 3.8-6.7 8.3-6.7 8.3-22.1-.7-30.5-15.2-30.5-15.2 0-32.2 14.4-58.3 14.4-58.3 14.4-10.8 28.1-10.5 28.1-10.5l1 1.2c-18 5.2-26.3 13.1-26.3 13.1s2.2-1.2 5.9-2.9c10.7-4.7 19.2-6 22.7-6.3.6-.1 1.1-.2 1.7-.2 6.1-.8 13-1 20.2-.2 9.5 1.1 19.7 3.9 30.1 9.6 0 0-7.9-7.5-24.9-12.7l1.4-1.6s13.7-.3 28.1 10.5c0 0 14.4 26.1 14.4 58.3 0 0-8.5 14.5-30.6 15.2z"
     id="path946" />
  <path
     style="fill:#000000;fill-opacity:1;stroke:#000000;stroke-width:0.90516174;stroke-opacity:1"
     d="M -8.6767344,-17.482386 V 251.19277 H 250.65063 V -17.482386 Z M 45.9342,26.173424 H 208.87216 V 181.27369 H 45.9342 Z"
     id="rect2181"
     inkscape:connector-curvature="0" />
  <path
     inkscape:connector-curvature="0"
     class="st0"
     d="M 189.5,20 H 55.5 C 44.2,20 35.000004,29.2 35.000004,40.6 v 135.2 c 0,11.4 9.199996,20.6 20.499996,20.6 h 113.4 l -5.3,-18.5 12.8,11.9 12.1,11.2 21.5,19 V 40.6 C 210,29.2 200.8,20 189.5,20 Z m -38.6,130.6 c 0,0 -3.6,-4.3 -6.6,-8.1 13.1,-3.7 18.1,-11.9 18.1,-11.9 -4.1,2.7 -8,4.6 -11.5,5.9 -5,2.1 -9.8,3.5 -14.5,4.3 -9.6,1.8 -18.4,1.3 -25.9,-0.1 -5.7,-1.1 -10.6,-2.7 -14.7,-4.3 -2.3,-0.9 -4.8,-2 -7.3,-3.4 -0.3,-0.2 -0.6,-0.3 -0.9,-0.5 -0.2,-0.1 -0.3,-0.2 -0.4,-0.3 -1.8,-1 -2.8,-1.7 -2.8,-1.7 0,0 4.8,8 17.5,11.8 -3,3.8 -6.7,8.3 -6.7,8.3 -22.1,-0.7 -30.5,-15.2 -30.5,-15.2 0,-32.2 14.4,-58.3 14.4,-58.3 14.4,-10.8 28.1,-10.5 28.1,-10.5 l 1,1.2 c -18,5.2 -26.3,13.1 -26.3,13.1 0,0 2.2,-1.2 5.9,-2.9 10.7,-4.7 19.2,-6 22.7,-6.3 0.6,-0.1 1.1,-0.2 1.7,-0.2 6.1,-0.8 13,-1 20.2,-0.2 9.5,1.1 19.7,3.9 30.1,9.6 0,0 -7.9,-7.5 -24.9,-12.7 l 1.4,-1.6 c 0,0 13.7,-0.3 28.1,10.5 0,0 14.4,26.1 14.4,58.3 0,0 -8.5,14.5 -30.6,15.2 z"
     id="path946-6"
     style="fill:#ffffff" />
</svg>
